# xmcd
#
# Track frame offsets:
#	150
#	18755
#	39634
#	60004
#	74027
#	94691
#	110862
#	126664
#	141878
#	163647
#	179927
#	193197
#	206831
#	219310
#	233004
#	245838
#	261437
#
# Disc length: 3707 seconds
#
# Revision: 0
# Processed by: cddbd v1.5.2PL0 Copyright (c) Steve Scherf et al.
# Submitted via: EasyCDDAExtractor 2010.6.0.0
#
DISCID=0f0e7911
DTITLE=Various Artist - My Country Vol.3 CD1
DYEAR=2011
DGENRE=Country
TTITLE0=Tim McGraw - Felt good on my lips
TTITLE1=Lady Antebellum - Need you now
TTITLE2=Kenny Chesney - Beer in Trelleborg
TTITLE3=Chris Young - Voices
TTITLE4=Brad Paisley - American Saturday night
TTITLE5=Gretchen Wilson - Redneck woman
TTITLE6=Zac Brown Band - Whatever it is
TTITLE7=Dierks Bentley - Free and easy (down the road I go)
TTITLE8=Miranda Lambert - White liar
TTITLE9=Lee Brice - Love like crazy
TTITLE10=Luke Bryan - Rain is a good thing
TTITLE11=Billy Currington - Pretty good at drinkin' beer
TTITLE12=Eric Church - Hell on the heart
TTITLE13=Sugarland - It happens
TTITLE14=Alan Jackson - Hard hat and a hammer
TTITLE15=Clay Walker - She won't be lonely long
TTITLE16=Steve Holy - Love don't run
EXTD=
EXTT0=
EXTT1=
EXTT2=
EXTT3=
EXTT4=
EXTT5=
EXTT6=
EXTT7=
EXTT8=
EXTT9=
EXTT10=
EXTT11=
EXTT12=
EXTT13=
EXTT14=
EXTT15=
EXTT16=
PLAYORDER=
